<?xml version="1.0" ?><svg viewBox="0 0 32 32" xmlns="http://www.w3.org/2000/svg"><defs><style>.cls-1{fill:#101820;}</style></defs><title/><g data-name="Layer 16" id="Layer_16"><path class="cls-1" d="M30,28H2a1,1,0,0,1-1-1V5A1,1,0,0,1,2,4H30a1,1,0,0,1,1,1V27A1,1,0,0,1,30,28ZM3,26H29V6H3Z"/><path class="cls-1" d="M16,17.37a3,3,0,0,1-1.95-.73L1.35,5.76a1,1,0,1,1,1.3-1.52l12.7,10.89a1,1,0,0,0,1.3,0L29.35,4.24a1,1,0,1,1,1.3,1.52L18,16.64A3,3,0,0,1,16,17.37Z"/><rect class="cls-1" height="2" transform="translate(-10.56 7.13) rotate(-33.69)" width="10.82" x="1.09" y="20"/><rect class="cls-1" height="10.82" transform="translate(-6.12 30.57) rotate(-56.31)" width="2" x="24.5" y="15.59"/></g></svg>